<svg width="14" height="14" viewBox="0 0 14 14" fill="none" xmlns="http://www.w3.org/2000/svg">
<path d="M5.73333 9.73398L10.4333 5.03398L9.5 4.10065L5.73333 7.86732L3.83333 5.96732L2.9 6.90065L5.73333 9.73398ZM6.66667 13.334C5.74444 13.334 4.87778 13.159 4.06667 12.809C3.25556 12.459 2.55 11.984 1.95 11.384C1.35 10.784 0.875 10.0784 0.525 9.26732C0.175 8.45621 0 7.58954 0 6.66732C0 5.7451 0.175 4.87843 0.525 4.06732C0.875 3.25621 1.35 2.55065 1.95 1.95065C2.55 1.35065 3.25556 0.87565 4.06667 0.52565C4.87778 0.175651 5.74444 0.000650406 6.66667 0.000650406C7.58889 0.000650406 8.45556 0.175651 9.26667 0.52565C10.0778 0.87565 10.7833 1.35065 11.3833 1.95065C11.9833 2.55065 12.4583 3.25621 12.8083 4.06732C13.1583 4.87843 13.3333 5.7451 13.3333 6.66732C13.3333 7.58954 13.1583 8.45621 12.8083 9.26732C12.4583 10.0784 11.9833 10.784 11.3833 11.384C10.7833 11.984 10.0778 12.459 9.26667 12.809C8.45556 13.159 7.58889 13.334 6.66667 13.334ZM6.66667 12.0007C8.15556 12.0007 9.41667 11.484 10.45 10.4507C11.4833 9.41732 12 8.15621 12 6.66732C12 5.17843 11.4833 3.91732 10.45 2.88398C9.41667 1.85065 8.15556 1.33398 6.66667 1.33398C5.17778 1.33398 3.91667 1.85065 2.88333 2.88398C1.85 3.91732 1.33333 5.17843 1.33333 6.66732C1.33333 8.15621 1.85 9.41732 2.88333 10.4507C3.91667 11.484 5.17778 12.0007 6.66667 12.0007Z" fill="#4747EB"/>
</svg>
