<svg width="11" height="11" viewBox="0 0 11 11" fill="none" xmlns="http://www.w3.org/2000/svg">
<path d="M0 10.666V9.33268H1.83333L1.56667 9.09935C0.988889 8.58824 0.583333 8.0049 0.35 7.34935C0.116667 6.69379 0 6.03268 0 5.36602C0 4.13268 0.369444 3.03546 1.10833 2.07435C1.84722 1.11324 2.81111 0.477126 4 0.166015V1.56602C3.2 1.8549 2.55556 2.34657 2.06667 3.04102C1.57778 3.73546 1.33333 4.51046 1.33333 5.36602C1.33333 5.86602 1.42778 6.35213 1.61667 6.82435C1.80556 7.29657 2.1 7.73268 2.5 8.13268L2.66667 8.29935V6.66602H4V10.666H0ZM6.66667 10.4993V9.09935C7.46667 8.81046 8.11111 8.31879 8.6 7.62435C9.08889 6.9299 9.33333 6.1549 9.33333 5.29935C9.33333 4.79935 9.23889 4.31324 9.05 3.84102C8.86111 3.36879 8.56667 2.93268 8.16667 2.53268L8 2.36602V3.99935H6.66667V-0.00065136H10.6667V1.33268H8.83333L9.1 1.56602C9.64445 2.11046 10.0417 2.70213 10.2917 3.34102C10.5417 3.9799 10.6667 4.63268 10.6667 5.29935C10.6667 6.53268 10.2972 7.6299 9.55833 8.59102C8.81944 9.55213 7.85556 10.1882 6.66667 10.4993Z" fill="#4747EB"/>
</svg>
