<svg width="11" height="14" viewBox="0 0 11 14" fill="none" xmlns="http://www.w3.org/2000/svg">
<path d="M5.33333 7.33398C4.67778 7.33398 4.125 7.10898 3.675 6.65898C3.225 6.20898 3 5.65621 3 5.00065C3 4.34509 3.225 3.79232 3.675 3.34232C4.125 2.89232 4.67778 2.66732 5.33333 2.66732C5.98889 2.66732 6.54167 2.89232 6.99167 3.34232C7.44167 3.79232 7.66667 4.34509 7.66667 5.00065C7.66667 5.65621 7.44167 6.20898 6.99167 6.65898C6.54167 7.10898 5.98889 7.33398 5.33333 7.33398ZM5.33333 6.00065C5.62222 6.00065 5.86111 5.90621 6.05 5.71732C6.23889 5.52843 6.33333 5.28954 6.33333 5.00065C6.33333 4.71176 6.23889 4.47287 6.05 4.28398C5.86111 4.09509 5.62222 4.00065 5.33333 4.00065C5.04444 4.00065 4.80556 4.09509 4.61667 4.28398C4.42778 4.47287 4.33333 4.71176 4.33333 5.00065C4.33333 5.28954 4.42778 5.52843 4.61667 5.71732C4.80556 5.90621 5.04444 6.00065 5.33333 6.00065ZM5.33333 13.334C3.78889 12.9451 2.51389 12.059 1.50833 10.6757C0.502778 9.29232 0 7.75621 0 6.06732V2.00065L5.33333 0.000650406L10.6667 2.00065V6.06732C10.6667 7.75621 10.1639 9.29232 9.15833 10.6757C8.15278 12.059 6.87778 12.9451 5.33333 13.334ZM5.33333 1.41732L1.33333 2.91732V6.06732C1.33333 6.66732 1.41667 7.25065 1.58333 7.81732C1.75 8.38398 1.97778 8.91732 2.26667 9.41732C2.73333 9.18398 3.22222 9.00065 3.73333 8.86732C4.24444 8.73398 4.77778 8.66732 5.33333 8.66732C5.88889 8.66732 6.42222 8.73398 6.93333 8.86732C7.44444 9.00065 7.93333 9.18398 8.4 9.41732C8.68889 8.91732 8.91667 8.38398 9.08333 7.81732C9.25 7.25065 9.33333 6.66732 9.33333 6.06732V2.91732L5.33333 1.41732ZM5.33333 10.0007C4.93333 10.0007 4.54444 10.0451 4.16667 10.134C3.78889 10.2229 3.42778 10.3451 3.08333 10.5007C3.40556 10.834 3.75556 11.1229 4.13333 11.3673C4.51111 11.6118 4.91111 11.8007 5.33333 11.934C5.75556 11.8007 6.15556 11.6118 6.53333 11.3673C6.91111 11.1229 7.26111 10.834 7.58333 10.5007C7.23889 10.3451 6.87778 10.2229 6.5 10.134C6.12222 10.0451 5.73333 10.0007 5.33333 10.0007Z" fill="#4747EB"/>
</svg>
