<svg width="11" height="14" viewBox="0 0 11 14" fill="none" xmlns="http://www.w3.org/2000/svg">
<path d="M5.33333 9.33398C5.52222 9.33398 5.68056 9.2701 5.80833 9.14232C5.93611 9.01454 6 8.85621 6 8.66732C6 8.47843 5.93611 8.3201 5.80833 8.19232C5.68056 8.06454 5.52222 8.00065 5.33333 8.00065C5.14444 8.00065 4.98611 8.06454 4.85833 8.19232C4.73056 8.3201 4.66667 8.47843 4.66667 8.66732C4.66667 8.85621 4.73056 9.01454 4.85833 9.14232C4.98611 9.2701 5.14444 9.33398 5.33333 9.33398ZM4.66667 6.66732H6V3.33398H4.66667V6.66732ZM5.33333 13.334C3.78889 12.9451 2.51389 12.059 1.50833 10.6757C0.502778 9.29232 0 7.75621 0 6.06732V2.00065L5.33333 0.000650406L10.6667 2.00065V6.06732C10.6667 7.75621 10.1639 9.29232 9.15833 10.6757C8.15278 12.059 6.87778 12.9451 5.33333 13.334ZM5.33333 11.934C6.48889 11.5673 7.44444 10.834 8.2 9.73398C8.95556 8.63398 9.33333 7.41176 9.33333 6.06732V2.91732L5.33333 1.41732L1.33333 2.91732V6.06732C1.33333 7.41176 1.71111 8.63398 2.46667 9.73398C3.22222 10.834 4.17778 11.5673 5.33333 11.934Z" fill="#4747EB"/>
</svg>
