<svg width="15" height="14" viewBox="0 0 15 14" fill="none" xmlns="http://www.w3.org/2000/svg">
<path d="M7.25667 12.0007C7.30111 12.0007 7.34556 11.9895 7.39 11.9673C7.43444 11.9451 7.46778 11.9229 7.49 11.9007L12.9567 6.43398C13.09 6.30065 13.1872 6.15065 13.2483 5.98398C13.3094 5.81732 13.34 5.65065 13.34 5.48398C13.34 5.30621 13.3094 5.13676 13.2483 4.97565C13.1872 4.81454 13.09 4.67287 12.9567 4.55065L10.1233 1.71732C10.0011 1.58398 9.85945 1.48676 9.69833 1.42565C9.53722 1.36454 9.36778 1.33398 9.19 1.33398C9.02333 1.33398 8.85667 1.36454 8.69 1.42565C8.52333 1.48676 8.37333 1.58398 8.24 1.71732L8.05667 1.90065L9.29 3.15065C9.45667 3.30621 9.57889 3.48398 9.65667 3.68398C9.73445 3.88398 9.77333 4.09509 9.77333 4.31732C9.77333 4.78398 9.615 5.17565 9.29833 5.49232C8.98167 5.80898 8.59 5.96732 8.12333 5.96732C7.90111 5.96732 7.68722 5.92843 7.48167 5.85065C7.27611 5.77287 7.09556 5.65621 6.94 5.50065L5.69 4.26732L2.77333 7.18398C2.74 7.21732 2.715 7.25343 2.69833 7.29232C2.68167 7.33121 2.67333 7.37287 2.67333 7.41732C2.67333 7.50621 2.70667 7.58676 2.77333 7.65898C2.84 7.73121 2.91778 7.76732 3.00667 7.76732C3.05111 7.76732 3.09556 7.75621 3.14 7.73398C3.18444 7.71176 3.21778 7.68954 3.24 7.66732L5.50667 5.40065L6.44 6.33398L4.19 8.60065C4.15667 8.63398 4.13167 8.6701 4.115 8.70898C4.09833 8.74787 4.09 8.78954 4.09 8.83398C4.09 8.92287 4.12333 9.00065 4.19 9.06732C4.25667 9.13398 4.33444 9.16732 4.42333 9.16732C4.46778 9.16732 4.51222 9.15621 4.55667 9.13398C4.60111 9.11176 4.63444 9.08954 4.65667 9.06732L6.92333 6.81732L7.85667 7.75065L5.60667 10.0173C5.57333 10.0395 5.54833 10.0729 5.53167 10.1173C5.515 10.1618 5.50667 10.2062 5.50667 10.2507C5.50667 10.3395 5.54 10.4173 5.60667 10.484C5.67333 10.5507 5.75111 10.584 5.84 10.584C5.88444 10.584 5.92611 10.5757 5.965 10.559C6.00389 10.5423 6.04 10.5173 6.07333 10.484L8.34 8.23398L9.27333 9.16732L7.00667 11.434C6.97333 11.4673 6.94833 11.5034 6.93167 11.5423C6.915 11.5812 6.90667 11.6229 6.90667 11.6673C6.90667 11.7562 6.94278 11.834 7.015 11.9007C7.08722 11.9673 7.16778 12.0007 7.25667 12.0007ZM7.24 13.334C6.82889 13.334 6.465 13.1979 6.14833 12.9257C5.83167 12.6534 5.64556 12.3118 5.59 11.9007C5.21222 11.8451 4.89556 11.6895 4.64 11.434C4.38444 11.1784 4.22889 10.8618 4.17333 10.484C3.79556 10.4284 3.48167 10.2701 3.23167 10.009C2.98167 9.74787 2.82889 9.43398 2.77333 9.06732C2.35111 9.01176 2.00667 8.82843 1.74 8.51732C1.47333 8.20621 1.34 7.83954 1.34 7.41732C1.34 7.1951 1.38167 6.98121 1.465 6.77565C1.54833 6.5701 1.66778 6.38954 1.82333 6.23398L5.69 2.38398L7.87333 4.56732C7.89556 4.60065 7.92889 4.62565 7.97333 4.64232C8.01778 4.65898 8.06222 4.66732 8.10667 4.66732C8.20667 4.66732 8.29 4.63676 8.35667 4.57565C8.42333 4.51454 8.45667 4.43398 8.45667 4.33398C8.45667 4.28954 8.44833 4.2451 8.43167 4.20065C8.415 4.15621 8.39 4.12287 8.35667 4.10065L5.97333 1.71732C5.85111 1.58398 5.70944 1.48676 5.54833 1.42565C5.38722 1.36454 5.21778 1.33398 5.04 1.33398C4.87333 1.33398 4.70667 1.36454 4.54 1.42565C4.37333 1.48676 4.22333 1.58398 4.09 1.71732L1.74 4.08398C1.64 4.18398 1.55667 4.30065 1.49 4.43398C1.42333 4.56732 1.37889 4.70065 1.35667 4.83398C1.33444 4.96732 1.33444 5.10343 1.35667 5.24232C1.37889 5.38121 1.42333 5.51176 1.49 5.63398L0.523333 6.60065C0.334444 6.3451 0.195556 6.06454 0.106667 5.75898C0.0177778 5.45343 -0.0155556 5.14509 0.00666667 4.83398C0.0288889 4.52287 0.106667 4.22009 0.24 3.92565C0.373333 3.63121 0.556667 3.36732 0.79 3.13398L3.14 0.783984C3.40667 0.528428 3.70389 0.333983 4.03167 0.20065C4.35944 0.067317 4.69556 0.000650406 5.04 0.000650406C5.38444 0.000650406 5.72056 0.067317 6.04833 0.20065C6.37611 0.333983 6.66778 0.528428 6.92333 0.783984L7.10667 0.967317L7.29 0.783984C7.55667 0.528428 7.85389 0.333983 8.18167 0.20065C8.50945 0.067317 8.84556 0.000650406 9.19 0.000650406C9.53445 0.000650406 9.87056 0.067317 10.1983 0.20065C10.5261 0.333983 10.8178 0.528428 11.0733 0.783984L13.89 3.60065C14.1456 3.85621 14.34 4.15065 14.4733 4.48398C14.6067 4.81732 14.6733 5.15621 14.6733 5.50065C14.6733 5.8451 14.6067 6.18121 14.4733 6.50898C14.34 6.83676 14.1456 7.12843 13.89 7.38398L8.42333 12.834C8.26778 12.9895 8.08722 13.1118 7.88167 13.2007C7.67611 13.2895 7.46222 13.334 7.24 13.334Z" fill="#4747EB"/>
</svg>
