<svg width="20" height="16" viewBox="0 0 20 16" fill="none" xmlns="http://www.w3.org/2000/svg">
<path d="M1.94444 15.5547C1.40972 15.5547 0.951968 15.3643 0.571181 14.9835C0.190394 14.6027 0 14.145 0 13.6102V1.94358C0 1.40885 0.190394 0.951099 0.571181 0.570312C0.951968 0.189526 1.40972 -0.000867844 1.94444 -0.000867844H17.5C18.0347 -0.000867844 18.4925 0.189526 18.8733 0.570312C19.2541 0.951099 19.4444 1.40885 19.4444 1.94358V13.6102C19.4444 14.145 19.2541 14.6027 18.8733 14.9835C18.4925 15.3643 18.0347 15.5547 17.5 15.5547H1.94444ZM9.72222 8.74913L1.94444 3.88802V13.6102H17.5V3.88802L9.72222 8.74913ZM9.72222 6.80469L17.5 1.94358H1.94444L9.72222 6.80469Z" fill="#9CA3AF"/>
</svg>
