<svg width="16" height="21" viewBox="0 0 16 21" fill="none" xmlns="http://www.w3.org/2000/svg">
<path d="M1.94444 20.416C1.40972 20.416 0.951968 20.2256 0.571181 19.8448C0.190394 19.464 0 19.0063 0 18.4716V8.74935C0 8.21463 0.190394 7.75687 0.571181 7.37608C0.951968 6.9953 1.40972 6.8049 1.94444 6.8049H2.91667V4.86046C2.91667 3.51555 3.39062 2.36914 4.33854 1.42122C5.28646 0.473305 6.43287 -0.000652313 7.77778 -0.000652313C9.12269 -0.000652313 10.2691 0.473305 11.217 1.42122C12.1649 2.36914 12.6389 3.51555 12.6389 4.86046V6.8049H13.6111C14.1458 6.8049 14.6036 6.9953 14.9844 7.37608C15.3652 7.75687 15.5556 8.21463 15.5556 8.74935V18.4716C15.5556 19.0063 15.3652 19.464 14.9844 19.8448C14.6036 20.2256 14.1458 20.416 13.6111 20.416H1.94444ZM1.94444 18.4716H13.6111V8.74935H1.94444V18.4716ZM7.77778 15.5549C8.3125 15.5549 8.77026 15.3645 9.15104 14.9837C9.53183 14.6029 9.72222 14.1452 9.72222 13.6105C9.72222 13.0757 9.53183 12.618 9.15104 12.2372C8.77026 11.8564 8.3125 11.666 7.77778 11.666C7.24306 11.666 6.7853 11.8564 6.40451 12.2372C6.02373 12.618 5.83333 13.0757 5.83333 13.6105C5.83333 14.1452 6.02373 14.6029 6.40451 14.9837C6.7853 15.3645 7.24306 15.5549 7.77778 15.5549ZM4.86111 6.8049H10.6944V4.86046C10.6944 4.05027 10.4109 3.36162 9.84375 2.79449C9.27662 2.22736 8.58796 1.94379 7.77778 1.94379C6.96759 1.94379 6.27894 2.22736 5.71181 2.79449C5.14468 3.36162 4.86111 4.05027 4.86111 4.86046V6.8049Z" fill="#9CA3AF"/>
</svg>
