<svg width="14" height="14" viewBox="0 0 14 14" fill="none" xmlns="http://www.w3.org/2000/svg">
<path d="M6.66667 6.66536C5.75 6.66536 4.96528 6.33898 4.3125 5.6862C3.65972 5.03342 3.33333 4.2487 3.33333 3.33203C3.33333 2.41536 3.65972 1.63064 4.3125 0.977864C4.96528 0.325087 5.75 -0.00130272 6.66667 -0.00130272C7.58333 -0.00130272 8.36806 0.325087 9.02083 0.977864C9.67361 1.63064 10 2.41536 10 3.33203C10 4.2487 9.67361 5.03342 9.02083 5.6862C8.36806 6.33898 7.58333 6.66536 6.66667 6.66536ZM0 13.332V10.9987C0 10.5265 0.121528 10.0924 0.364583 9.69661C0.607639 9.30078 0.930556 8.9987 1.33333 8.79036C2.19444 8.35981 3.06944 8.03689 3.95833 7.82161C4.84722 7.60634 5.75 7.4987 6.66667 7.4987C7.58333 7.4987 8.48611 7.60634 9.375 7.82161C10.2639 8.03689 11.1389 8.35981 12 8.79036C12.4028 8.9987 12.7257 9.30078 12.9688 9.69661C13.2118 10.0924 13.3333 10.5265 13.3333 10.9987V13.332H0ZM1.66667 11.6654H11.6667V10.9987C11.6667 10.8459 11.6285 10.707 11.5521 10.582C11.4757 10.457 11.375 10.3598 11.25 10.2904C10.5 9.91536 9.74306 9.63411 8.97917 9.44661C8.21528 9.25911 7.44444 9.16536 6.66667 9.16536C5.88889 9.16536 5.11806 9.25911 4.35417 9.44661C3.59028 9.63411 2.83333 9.91536 2.08333 10.2904C1.95833 10.3598 1.85764 10.457 1.78125 10.582C1.70486 10.707 1.66667 10.8459 1.66667 10.9987V11.6654ZM6.66667 4.9987C7.125 4.9987 7.51736 4.8355 7.84375 4.50911C8.17014 4.18272 8.33333 3.79036 8.33333 3.33203C8.33333 2.8737 8.17014 2.48134 7.84375 2.15495C7.51736 1.82856 7.125 1.66536 6.66667 1.66536C6.20833 1.66536 5.81597 1.82856 5.48958 2.15495C5.16319 2.48134 5 2.8737 5 3.33203C5 3.79036 5.16319 4.18272 5.48958 4.50911C5.81597 4.8355 6.20833 4.9987 6.66667 4.9987Z" fill="#334155"/>
</svg>
