<svg width="18" height="18" viewBox="0 0 18 18" fill="none" xmlns="http://www.w3.org/2000/svg">
<path d="M6.5625 17.5C5.73611 17.5 5.02315 17.2124 4.42361 16.6372C3.82407 16.0619 3.4838 15.3692 3.40278 14.559C2.43056 14.4294 1.62037 14 0.972222 13.2708C0.324074 12.5417 0 11.6829 0 10.6944C0 10.3542 0.0445602 10.0179 0.133681 9.68576C0.222801 9.35359 0.356481 9.04167 0.534722 8.75C0.356481 8.45833 0.222801 8.15046 0.133681 7.82639C0.0445602 7.50231 0 7.16204 0 6.80556C0 5.81713 0.324074 4.96238 0.972222 4.24132C1.62037 3.52026 2.42245 3.09491 3.37847 2.96528C3.42708 2.13889 3.75926 1.43808 4.375 0.862846C4.99074 0.287615 5.71991 0 6.5625 0C6.9838 0 7.37674 0.0810184 7.74132 0.243055C8.1059 0.405092 8.44213 0.623842 8.75 0.899305C9.04167 0.623842 9.37384 0.405092 9.74653 0.243055C10.1192 0.0810184 10.5162 0 10.9375 0C11.7801 0 12.5052 0.283566 13.1128 0.850695C13.7205 1.41782 14.0486 2.11458 14.0972 2.94097C15.0532 3.0706 15.8594 3.5 16.5156 4.22917C17.1719 4.95833 17.5 5.81713 17.5 6.80556C17.5 7.16204 17.4554 7.50231 17.3663 7.82639C17.2772 8.15046 17.1435 8.45833 16.9653 8.75C17.1435 9.04167 17.2772 9.35359 17.3663 9.68576C17.4554 10.0179 17.5 10.3542 17.5 10.6944C17.5 11.6991 17.1719 12.5619 16.5156 13.283C15.8594 14.0041 15.0451 14.4294 14.0729 14.559C13.9919 15.3692 13.6557 16.0619 13.0642 16.6372C12.4728 17.2124 11.7639 17.5 10.9375 17.5C10.5324 17.5 10.1395 17.423 9.75868 17.2691C9.37789 17.1152 9.04167 16.9005 8.75 16.625C8.44213 16.9005 8.10185 17.1152 7.72917 17.2691C7.35648 17.423 6.96759 17.5 6.5625 17.5ZM9.72222 3.15972V14.3403C9.72222 14.6806 9.8397 14.9682 10.0747 15.2031C10.3096 15.4381 10.5972 15.5556 10.9375 15.5556C11.2616 15.5556 11.5411 15.4259 11.776 15.1667C12.011 14.9074 12.1366 14.6157 12.1528 14.2917C11.8125 14.162 11.5006 13.9878 11.217 13.7691C10.9334 13.5503 10.6782 13.287 10.4514 12.9792C10.2894 12.7523 10.2286 12.5093 10.2691 12.25C10.3096 11.9907 10.4433 11.7801 10.6701 11.6181C10.897 11.456 11.14 11.3953 11.3993 11.4358C11.6586 11.4763 11.8692 11.61 12.0312 11.8368C12.2095 12.0961 12.4363 12.2946 12.7118 12.4323C12.9873 12.57 13.287 12.6389 13.6111 12.6389C14.1458 12.6389 14.6036 12.4485 14.9844 12.0677C15.3652 11.6869 15.5556 11.2292 15.5556 10.6944C15.5556 10.6134 15.5515 10.5324 15.5434 10.4514C15.5353 10.3704 15.515 10.2894 15.4826 10.2083C15.2072 10.3704 14.9115 10.4919 14.5955 10.5729C14.2795 10.6539 13.9514 10.6944 13.6111 10.6944C13.3356 10.6944 13.1047 10.6013 12.9184 10.4149C12.7321 10.2286 12.6389 9.99769 12.6389 9.72222C12.6389 9.44676 12.7321 9.21586 12.9184 9.02951C13.1047 8.84317 13.3356 8.75 13.6111 8.75C14.1458 8.75 14.6036 8.55961 14.9844 8.17882C15.3652 7.79803 15.5556 7.34028 15.5556 6.80556C15.5556 6.27083 15.3652 5.81713 14.9844 5.44444C14.6036 5.07176 14.1458 4.87731 13.6111 4.86111C13.4329 5.15278 13.202 5.40799 12.9184 5.62674C12.6348 5.84549 12.3229 6.01968 11.9826 6.14931C11.7234 6.24653 11.4722 6.23843 11.2292 6.125C10.9861 6.01157 10.8241 5.82523 10.7431 5.56597C10.662 5.30671 10.6742 5.05556 10.7795 4.8125C10.8848 4.56944 11.0671 4.40741 11.3264 4.32639C11.5694 4.24537 11.7679 4.09954 11.9219 3.88889C12.0758 3.67824 12.1528 3.43519 12.1528 3.15972C12.1528 2.81944 12.0353 2.53183 11.8003 2.29688C11.5654 2.06192 11.2778 1.94444 10.9375 1.94444C10.5972 1.94444 10.3096 2.06192 10.0747 2.29688C9.8397 2.53183 9.72222 2.81944 9.72222 3.15972ZM7.77778 14.3403V3.15972C7.77778 2.81944 7.6603 2.53183 7.42535 2.29688C7.19039 2.06192 6.90278 1.94444 6.5625 1.94444C6.22222 1.94444 5.93461 2.06192 5.69965 2.29688C5.4647 2.53183 5.34722 2.81944 5.34722 3.15972C5.34722 3.41898 5.42014 3.65799 5.56597 3.87674C5.71181 4.09549 5.90625 4.24537 6.14931 4.32639C6.40857 4.40741 6.59491 4.56944 6.70833 4.8125C6.82176 5.05556 6.83796 5.30671 6.75694 5.56597C6.65972 5.82523 6.48958 6.01157 6.24653 6.125C6.00347 6.23843 5.75232 6.24653 5.49306 6.14931C5.15278 6.01968 4.84086 5.84549 4.55729 5.62674C4.27373 5.40799 4.04282 5.15278 3.86458 4.86111C3.34607 4.87731 2.89641 5.07581 2.51562 5.4566C2.13484 5.83738 1.94444 6.28704 1.94444 6.80556C1.94444 7.34028 2.13484 7.79803 2.51562 8.17882C2.89641 8.55961 3.35417 8.75 3.88889 8.75C4.16435 8.75 4.39525 8.84317 4.5816 9.02951C4.76794 9.21586 4.86111 9.44676 4.86111 9.72222C4.86111 9.99769 4.76794 10.2286 4.5816 10.4149C4.39525 10.6013 4.16435 10.6944 3.88889 10.6944C3.54861 10.6944 3.22049 10.6539 2.90451 10.5729C2.58854 10.4919 2.29282 10.3704 2.01736 10.2083C1.98495 10.2894 1.9647 10.3704 1.9566 10.4514C1.9485 10.5324 1.94444 10.6134 1.94444 10.6944C1.94444 11.2292 2.13484 11.6869 2.51562 12.0677C2.89641 12.4485 3.35417 12.6389 3.88889 12.6389C4.21296 12.6389 4.51273 12.57 4.78819 12.4323C5.06366 12.2946 5.29051 12.0961 5.46875 11.8368C5.63079 11.61 5.84144 11.4763 6.10069 11.4358C6.35995 11.3953 6.60301 11.456 6.82986 11.6181C7.05671 11.7801 7.19039 11.9907 7.2309 12.25C7.27141 12.5093 7.21065 12.7523 7.04861 12.9792C6.82176 13.287 6.5625 13.5544 6.27083 13.7812C5.97917 14.0081 5.66319 14.1863 5.32292 14.316C5.33912 14.64 5.46875 14.9277 5.71181 15.1788C5.95486 15.43 6.23843 15.5556 6.5625 15.5556C6.90278 15.5556 7.19039 15.4381 7.42535 15.2031C7.6603 14.9682 7.77778 14.6806 7.77778 14.3403Z" fill="#4747EB"/>
</svg>
