<svg width="18" height="20" viewBox="0 0 18 20" fill="none" xmlns="http://www.w3.org/2000/svg">
<path d="M1.94444 19.4453C1.40972 19.4453 0.951968 19.2549 0.571181 18.8741C0.190394 18.4933 0 18.0356 0 17.5009V3.88976C0 3.35503 0.190394 2.89728 0.571181 2.51649C0.951968 2.13571 1.40972 1.94531 1.94444 1.94531H2.91667V0.000867844H4.86111V1.94531H12.6389V0.000867844H14.5833V1.94531H15.5556C16.0903 1.94531 16.548 2.13571 16.9288 2.51649C17.3096 2.89728 17.5 3.35503 17.5 3.88976V17.5009C17.5 18.0356 17.3096 18.4933 16.9288 18.8741C16.548 19.2549 16.0903 19.4453 15.5556 19.4453H1.94444ZM1.94444 17.5009H15.5556V7.77865H1.94444V17.5009ZM1.94444 5.8342H15.5556V3.88976H1.94444V5.8342ZM8.75 11.6675C8.47454 11.6675 8.24363 11.5744 8.05729 11.388C7.87095 11.2017 7.77778 10.9708 7.77778 10.6953C7.77778 10.4198 7.87095 10.1889 8.05729 10.0026C8.24363 9.81626 8.47454 9.72309 8.75 9.72309C9.02546 9.72309 9.25637 9.81626 9.44271 10.0026C9.62905 10.1889 9.72222 10.4198 9.72222 10.6953C9.72222 10.9708 9.62905 11.2017 9.44271 11.388C9.25637 11.5744 9.02546 11.6675 8.75 11.6675ZM4.86111 11.6675C4.58565 11.6675 4.35475 11.5744 4.1684 11.388C3.98206 11.2017 3.88889 10.9708 3.88889 10.6953C3.88889 10.4198 3.98206 10.1889 4.1684 10.0026C4.35475 9.81626 4.58565 9.72309 4.86111 9.72309C5.13657 9.72309 5.36748 9.81626 5.55382 10.0026C5.74016 10.1889 5.83333 10.4198 5.83333 10.6953C5.83333 10.9708 5.74016 11.2017 5.55382 11.388C5.36748 11.5744 5.13657 11.6675 4.86111 11.6675ZM12.6389 11.6675C12.3634 11.6675 12.1325 11.5744 11.9462 11.388C11.7598 11.2017 11.6667 10.9708 11.6667 10.6953C11.6667 10.4198 11.7598 10.1889 11.9462 10.0026C12.1325 9.81626 12.3634 9.72309 12.6389 9.72309C12.9144 9.72309 13.1453 9.81626 13.3316 10.0026C13.5179 10.1889 13.6111 10.4198 13.6111 10.6953C13.6111 10.9708 13.5179 11.2017 13.3316 11.388C13.1453 11.5744 12.9144 11.6675 12.6389 11.6675ZM8.75 15.5564C8.47454 15.5564 8.24363 15.4633 8.05729 15.2769C7.87095 15.0906 7.77778 14.8597 7.77778 14.5842C7.77778 14.3087 7.87095 14.0778 8.05729 13.8915C8.24363 13.7052 8.47454 13.612 8.75 13.612C9.02546 13.612 9.25637 13.7052 9.44271 13.8915C9.62905 14.0778 9.72222 14.3087 9.72222 14.5842C9.72222 14.8597 9.62905 15.0906 9.44271 15.2769C9.25637 15.4633 9.02546 15.5564 8.75 15.5564ZM4.86111 15.5564C4.58565 15.5564 4.35475 15.4633 4.1684 15.2769C3.98206 15.0906 3.88889 14.8597 3.88889 14.5842C3.88889 14.3087 3.98206 14.0778 4.1684 13.8915C4.35475 13.7052 4.58565 13.612 4.86111 13.612C5.13657 13.612 5.36748 13.7052 5.55382 13.8915C5.74016 14.0778 5.83333 14.3087 5.83333 14.5842C5.83333 14.8597 5.74016 15.0906 5.55382 15.2769C5.36748 15.4633 5.13657 15.5564 4.86111 15.5564ZM12.6389 15.5564C12.3634 15.5564 12.1325 15.4633 11.9462 15.2769C11.7598 15.0906 11.6667 14.8597 11.6667 14.5842C11.6667 14.3087 11.7598 14.0778 11.9462 13.8915C12.1325 13.7052 12.3634 13.612 12.6389 13.612C12.9144 13.612 13.1453 13.7052 13.3316 13.8915C13.5179 14.0778 13.6111 14.3087 13.6111 14.5842C13.6111 14.8597 13.5179 15.0906 13.3316 15.2769C13.1453 15.4633 12.9144 15.5564 12.6389 15.5564Z" fill="#C8B6FF"/>
</svg>
