<svg width="18" height="16" viewBox="0 0 18 16" fill="none" xmlns="http://www.w3.org/2000/svg">
<path d="M3.69444 15.5547C3.20833 15.5547 2.79514 15.3845 2.45486 15.0443C2.11458 14.704 1.94444 14.2908 1.94444 13.8047C1.94444 13.4644 2.04167 13.1444 2.23611 12.8446C2.43056 12.5448 2.68981 12.3302 3.01389 12.2005L6.80556 10.6936V8.50608C5.93056 9.52691 4.91377 10.3087 3.75521 10.8516C2.59664 11.3944 1.34491 11.6658 0 11.6658V9.72135C1.10185 9.72135 2.10243 9.4945 3.00174 9.0408C3.90104 8.58709 4.71528 7.93895 5.44444 7.09635L6.75694 5.5408C6.95139 5.31395 7.17824 5.14381 7.4375 5.03038C7.69676 4.91696 7.97222 4.86024 8.26389 4.86024H9.23611C9.52778 4.86024 9.80324 4.91696 10.0625 5.03038C10.3218 5.14381 10.5486 5.31395 10.7431 5.5408L12.0556 7.09635C12.7847 7.93895 13.599 8.58709 14.4983 9.0408C15.3976 9.4945 16.3981 9.72135 17.5 9.72135V11.6658C16.1551 11.6658 14.9034 11.3944 13.7448 10.8516C12.5862 10.3087 11.5694 9.52691 10.6944 8.50608V10.6936L14.4861 12.2005C14.8102 12.3302 15.0694 12.5448 15.2639 12.8446C15.4583 13.1444 15.5556 13.4644 15.5556 13.8047C15.5556 14.2908 15.3854 14.704 15.0451 15.0443C14.7049 15.3845 14.2917 15.5547 13.8056 15.5547H6.80556V15.0686C6.80556 14.6473 6.94329 14.2989 7.21875 14.0234C7.49421 13.748 7.84259 13.6102 8.26389 13.6102H11.1806C11.3264 13.6102 11.4439 13.5657 11.533 13.4766C11.6221 13.3874 11.6667 13.27 11.6667 13.1241C11.6667 12.9783 11.6221 12.8608 11.533 12.7717C11.4439 12.6826 11.3264 12.638 11.1806 12.638H8.26389C7.58333 12.638 7.0081 12.873 6.53819 13.3429C6.06829 13.8128 5.83333 14.388 5.83333 15.0686V15.5547H3.69444ZM8.75 3.88802C8.21528 3.88802 7.75752 3.69763 7.37674 3.31684C6.99595 2.93605 6.80556 2.4783 6.80556 1.94358C6.80556 1.40885 6.99595 0.951099 7.37674 0.570312C7.75752 0.189526 8.21528 -0.000867844 8.75 -0.000867844C9.28472 -0.000867844 9.74248 0.189526 10.1233 0.570312C10.5041 0.951099 10.6944 1.40885 10.6944 1.94358C10.6944 2.4783 10.5041 2.93605 10.1233 3.31684C9.74248 3.69763 9.28472 3.88802 8.75 3.88802Z" fill="#A2D2FF"/>
</svg>
