<svg width="18" height="21" viewBox="0 0 18 21" fill="none" xmlns="http://www.w3.org/2000/svg">
<path d="M5.83333 1.94379V-0.000652313H11.6667V1.94379H5.83333ZM7.77778 12.6382H9.72222V6.8049H7.77778V12.6382ZM8.75 20.416C7.55093 20.416 6.42072 20.1851 5.35938 19.7233C4.29803 19.2615 3.37037 18.6336 2.57639 17.8396C1.78241 17.0456 1.15451 16.118 0.692708 15.0566C0.230903 13.9953 0 12.8651 0 11.666C0 10.4669 0.230903 9.33673 0.692708 8.27539C1.15451 7.21405 1.78241 6.28638 2.57639 5.4924C3.37037 4.69842 4.29803 4.07053 5.35938 3.60872C6.42072 3.14692 7.55093 2.91601 8.75 2.91601C9.75463 2.91601 10.7188 3.07805 11.6424 3.40212C12.566 3.7262 13.4329 4.19611 14.2431 4.81185L15.6042 3.45074L16.9653 4.81185L15.6042 6.17296C16.2199 6.98314 16.6898 7.85004 17.0139 8.77365C17.338 9.69726 17.5 10.6614 17.5 11.666C17.5 12.8651 17.2691 13.9953 16.8073 15.0566C16.3455 16.118 15.7176 17.0456 14.9236 17.8396C14.1296 18.6336 13.202 19.2615 12.1406 19.7233C11.0793 20.1851 9.94907 20.416 8.75 20.416ZM8.75 18.4716C10.6296 18.4716 12.2338 17.8072 13.5625 16.4785C14.8912 15.1498 15.5556 13.5456 15.5556 11.666C15.5556 9.78638 14.8912 8.18222 13.5625 6.85351C12.2338 5.52481 10.6296 4.86046 8.75 4.86046C6.87037 4.86046 5.2662 5.52481 3.9375 6.85351C2.6088 8.18222 1.94444 9.78638 1.94444 11.666C1.94444 13.5456 2.6088 15.1498 3.9375 16.4785C5.2662 17.8072 6.87037 18.4716 8.75 18.4716Z" fill="#A2D2FF"/>
</svg>
