<svg width="16" height="20" viewBox="0 0 16 20" fill="none" xmlns="http://www.w3.org/2000/svg">
<path d="M3.88889 15.5564H11.6667V13.612H3.88889V15.5564ZM3.88889 11.6675H11.6667V9.72309H3.88889V11.6675ZM1.94444 19.4453C1.40972 19.4453 0.951968 19.2549 0.571181 18.8741C0.190394 18.4933 0 18.0356 0 17.5009V1.94531C0 1.41059 0.190394 0.952835 0.571181 0.572048C0.951968 0.191261 1.40972 0.000867844 1.94444 0.000867844H9.72222L15.5556 5.8342V17.5009C15.5556 18.0356 15.3652 18.4933 14.9844 18.8741C14.6036 19.2549 14.1458 19.4453 13.6111 19.4453H1.94444ZM8.75 6.80642V1.94531H1.94444V17.5009H13.6111V6.80642H8.75ZM1.94444 1.94531V6.80642V17.5009V1.94531Z" fill="#4747EB"/>
</svg>
