<svg width="21" height="20" viewBox="0 0 21 20" fill="none" xmlns="http://www.w3.org/2000/svg">
<path d="M16.2118 6.80642L15.1424 4.47309L12.809 3.40365L15.1424 2.3342L16.2118 0.000867844L17.2812 2.3342L19.6146 3.40365L17.2812 4.47309L16.2118 6.80642ZM18.1562 13.612L17.3785 11.9592L15.7257 11.1814L17.3785 10.4036L18.1562 8.75087L18.934 10.4036L20.5868 11.1814L18.934 11.9592L18.1562 13.612ZM5.51736 19.4453L5.22569 17.1606C5.11227 17.112 4.99074 17.0472 4.86111 16.9661C4.73148 16.8851 4.62616 16.8041 4.54514 16.7231L2.40625 17.6467L0 13.4175L1.82292 12.0564C1.82292 11.9268 1.82292 11.7972 1.82292 11.6675C1.82292 11.5379 1.82292 11.4083 1.82292 11.2786L0 9.91753L2.40625 5.68837L4.54514 6.61198C4.62616 6.53096 4.73148 6.44994 4.86111 6.36892C4.99074 6.2879 5.11227 6.22309 5.22569 6.17448L5.51736 3.88976H10.3785L10.6701 6.17448C10.7836 6.22309 10.9051 6.2879 11.0347 6.36892C11.1644 6.44994 11.2697 6.53096 11.3507 6.61198L13.4896 5.68837L15.8958 9.91753L14.0729 11.2786C14.0729 11.4083 14.0729 11.5379 14.0729 11.6675C14.0729 11.7972 14.0729 11.9268 14.0729 12.0564L15.8958 13.4175L13.4896 17.6467L11.3507 16.7231C11.2697 16.8041 11.1644 16.8851 11.0347 16.9661C10.9051 17.0472 10.7836 17.112 10.6701 17.1606L10.3785 19.4453H5.51736ZM7.94792 14.5842C8.7581 14.5842 9.44676 14.3006 10.0139 13.7335C10.581 13.1664 10.8646 12.4777 10.8646 11.6675C10.8646 10.8573 10.581 10.1687 10.0139 9.60156C9.44676 9.03443 8.7581 8.75087 7.94792 8.75087C7.13773 8.75087 6.44907 9.03443 5.88194 9.60156C5.31482 10.1687 5.03125 10.8573 5.03125 11.6675C5.03125 12.4777 5.31482 13.1664 5.88194 13.7335C6.44907 14.3006 7.13773 14.5842 7.94792 14.5842ZM7.21875 17.5009H8.67708L8.87153 15.7509C9.34144 15.6212 9.74248 15.4552 10.0747 15.2526C10.4068 15.0501 10.735 14.7786 11.059 14.4384L12.6632 15.1675L13.3438 13.9523L11.934 12.8828C12.0637 12.5101 12.1285 12.105 12.1285 11.6675C12.1285 11.23 12.0637 10.8249 11.934 10.4523L13.3438 9.38281L12.6632 8.16753L11.059 8.8967C10.735 8.55642 10.4068 8.28501 10.0747 8.08247C9.74248 7.87992 9.34144 7.71383 8.87153 7.5842L8.67708 5.8342H7.21875L7.02431 7.5842C6.5544 7.71383 6.15336 7.87992 5.82118 8.08247C5.489 8.28501 5.16088 8.55642 4.83681 8.8967L3.23264 8.16753L2.55208 9.38281L3.96181 10.4523C3.83218 10.8249 3.76331 11.23 3.75521 11.6675C3.74711 12.105 3.81597 12.5101 3.96181 12.8828L2.55208 13.9523L3.23264 15.1675L4.83681 14.4384C5.16088 14.7786 5.489 15.0501 5.82118 15.2526C6.15336 15.4552 6.5544 15.6212 7.02431 15.7509L7.21875 17.5009Z" fill="#4747EB"/>
</svg>
