<svg width="16" height="16" viewBox="0 0 16 16" fill="none" xmlns="http://www.w3.org/2000/svg">
<path d="M7.77454 15.5508C5.60415 15.5508 3.76579 14.7976 2.25948 13.2913C0.753159 11.785 0 9.94663 0 7.77624C0 5.60585 0.753159 3.7675 2.25948 2.26118C3.76579 0.754861 5.60415 0.00170231 7.77454 0.00170231C8.89213 0.00170231 9.96113 0.232509 10.9815 0.694122C12.0019 1.15574 12.8766 1.81576 13.6054 2.6742V0.00170231H15.5491V6.80442H8.74636V4.86079H12.828C12.3097 3.95376 11.6011 3.24109 10.7021 2.72279C9.80321 2.20449 8.82734 1.94534 7.77454 1.94534C6.15484 1.94534 4.7781 2.51223 3.64432 3.64602C2.51053 4.7798 1.94363 6.15655 1.94363 7.77624C1.94363 9.39594 2.51053 10.7727 3.64432 11.9065C4.7781 13.0403 6.15484 13.6071 7.77454 13.6071C9.02171 13.6071 10.1474 13.2508 11.1516 12.5381C12.1558 11.8255 12.8604 10.8861 13.2653 9.71988H15.3061C14.8526 11.4368 13.9294 12.8378 12.5364 13.923C11.1435 15.0082 9.5562 15.5508 7.77454 15.5508Z" fill="#6B7280"/>
</svg>
